<svg width="22" height="22" viewBox="0 0 22 22" fill="#ffffff" xmlns="http://www.w3.org/2000/svg" class="_bc_cbb_btn__icon _bc_cbb_btn__icon--chat"><path d="M1.4844 18.0313C1.57815 18.1876 1.63023 18.3647 1.63023 18.5626L1.00002 21.8334L3.9271 20.6824C4.06773 20.6251 4.21877 20.5938 4.38023 20.5938C4.52606 20.5938 4.66669 20.6199 4.7969 20.6667C4.7969 20.6667 4.8021 20.6667 4.80731 20.6667C4.82815 20.6771 4.84898 20.6824 4.86981 20.6928C5.7969 21.073 6.81773 21.2865 7.88544 21.2865C10.2969 21.2865 12.4479 20.2188 13.8646 18.5469C13.1302 18.7344 12.3594 18.8438 11.5677 18.8438C6.57294 18.8438 2.52085 14.9376 2.52085 10.1199C2.52085 9.50528 2.58856 8.91153 2.71356 8.3334C1.15106 9.69278 0.166687 11.6563 0.166687 13.8438C0.166687 15.323 0.614604 16.7188 1.39065 17.8803C1.4219 17.9219 1.45315 17.9792 1.4844 18.0313Z" fill="#FFFFFF"></path>
<path d="M12.7866 0.166412C8.42718 0.166412 4.78656 3.14558 3.93239 7.10391C3.80739 7.68204 3.73969 8.27579 3.73969 8.89037C3.73969 13.7081 7.78656 17.6143 12.7866 17.6143C13.5834 17.6143 14.3491 17.505 15.0834 17.3175C15.5053 17.2081 15.922 17.0831 16.323 16.9216C16.3491 16.9112 16.3699 16.9008 16.3959 16.8904C16.4011 16.8904 16.4063 16.8904 16.4063 16.8852C16.5574 16.8279 16.7241 16.7966 16.8907 16.7966C17.0782 16.7966 17.2553 16.8331 17.4168 16.9008L20.9897 18.2445L20.1043 14.4008C20.1043 14.1716 20.1668 13.9529 20.2761 13.7654C20.3074 13.7081 20.3491 13.656 20.3855 13.6039C21.2918 12.2445 21.8178 10.6247 21.8178 8.89037C21.8334 4.07266 17.7866 0.166412 12.7866 0.166412Z" fill="#ffffff"></path></svg>