<svg width="22" height="6" viewBox="0 0 22 6" fill="#ffffff" xmlns="http://www.w3.org/2000/svg" class=""><path d="M0.5 3C0.5 3.39782 0.658035 3.77936 0.93934 4.06066C1.22064 4.34196 1.60218 4.5 2 4.5C2.39782 4.5 2.77936 4.34196 3.06066 4.06066C3.34196 3.77936 3.5 3.39782 3.5 3C3.5 2.60218 3.34196 2.22064 3.06066 1.93934C2.77936 1.65804 2.39782 1.5 2 1.5C1.60218 1.5 1.22064 1.65804 0.93934 1.93934C0.658035 2.22064 0.5 2.60218 0.5 3Z" fill="#ffffff"></path><path d="M18.5 3C18.5 3.39782 18.658 3.77936 18.9393 4.06066C19.2206 4.34196 19.6022 4.5 20 4.5C20.3978 4.5 20.7794 4.34196 21.0607 4.06066C21.342 3.77936 21.5 3.39782 21.5 3C21.5 2.60218 21.342 2.22064 21.0607 1.93934C20.7794 1.65804 20.3978 1.5 20 1.5C19.6022 1.5 19.2206 1.65804 18.9393 1.93934C18.658 2.22064 18.5 2.60218 18.5 3Z" fill="#ffffff"></path><path d="M8 3C8 3.79565 8.31607 4.55871 8.87868 5.12132C9.44129 5.68393 10.2044 6 11 6C11.7956 6 12.5587 5.68393 13.1213 5.12132C13.6839 4.55871 14 3.79565 14 3C14 2.20435 13.6839 1.44129 13.1213 0.87868C12.5587 0.316071 11.7956 0 11 0C10.2044 0 9.44129 0.316071 8.87868 0.87868C8.31607 1.44129 8 2.20435 8 3Z" fill="#ffffff"></path></svg>